PathFileType	4	(X/Y/Z)	C:\Users\WrightLab\Desktop\Jo\P5V114.trc
DataRate	CameraRate	NumFrames	NumMarkers	Units	OrigDataRate	OrigDataStartFrame	OrigNumFrames
100.00	100.00	      36	19	mm	100.00	392	      1045
Frame#	Time	Headset_Front			Headset_Back			Headset_Left			Headset_Right			Left_Shoulder			Right_Shoulder			Sternum			C7			Left Elbow			Right Elbow			Left Wrist			Right Wrist			Left ASIS			Right ASIS			S2			Left Knee			Right Knee			Left Ankle			Right Ankle			
		X1	Y1	Z1	X2	Y2	Z2	X3	Y3	Z3	X4	Y4	Z4	X5	Y5	Z5	X6	Y6	Z6	X7	Y7	Z7	X8	Y8	Z8	X9	Y9	Z9	X10	Y10	Z10	X11	Y11	Z11	X12	Y12	Z12	X13	Y13	Z13	X14	Y14	Z14	X15	Y15	Z15	X16	Y16	Z16	X17	Y17	Z17	X18	Y18	Z18	X19	Y19	Z19	

392	3.910																												-135.24597	1232.78882	1608.27917				-180.62582	1133.77808	1386.94128	-655.04919	977.19849	1800.59692	-445.92508	959.16553	1623.51965							-561.66302	581.21600	1587.24121							
393	3.920																												-137.30246	1232.15234	1608.55518				-181.82005	1131.65723	1388.68787	-657.55084	976.92627	1798.54358	-448.65668	958.23315	1622.03418							-563.45013	580.11780	1582.71106							
394	3.930																												-139.13820	1231.95288	1609.46790				-183.33989	1129.80249	1390.17139	-659.86743	976.67004	1795.82922	-451.10010	957.74500	1618.88977							-564.70789	579.72852	1581.11743							
395	3.940																												-141.37370	1231.02563	1610.43738				-184.17862	1127.83459	1392.02075	-662.38849	976.02277	1793.33240	-453.78183	956.51764	1616.23499							-566.58490	578.59589	1576.89001							
396	3.950																												-143.50578	1230.96899	1611.73547				-185.80956	1126.02454	1393.01025	-664.79700	975.34332	1789.92371	-456.02411	957.40454	1609.69702							-567.23547	576.76007	1573.16101							
397	3.960																												-145.64143	1230.33643	1611.55579				-187.90996	1124.37036	1394.25586	-667.44434	974.56854	1786.65173	-458.57346	956.20923	1609.13696							-567.75183	576.06915	1570.86438							
398	3.970																												-147.24409	1230.30139	1611.86133				-189.39456	1122.36780	1395.44897	-669.81378	974.07593	1784.35596	-460.33929	954.64362	1603.13928							-568.49866	574.09430	1567.11597							
399	3.980																												-150.08667	1229.04822	1611.61841				-191.69412	1120.80994	1395.83606	-672.56067	973.13489	1780.19629	-463.11752	953.78857	1599.17432							-569.79645	572.80170	1564.07202							
400	3.990																												-152.19925	1228.45642	1611.62122				-193.55614	1118.98645	1396.66638	-675.14856	972.18549	1775.98071	-465.76834	952.15967	1594.70996							-571.06940	571.90033	1561.29822							
401	4.000																												-155.55388	1227.17383	1611.19165				-195.30710	1117.05530	1397.64185	-677.86011	971.42511	1772.57593	-468.24689	950.72449	1589.65662							-572.63843	570.30267	1558.35168							
402	4.010																												-158.11313	1227.06677	1610.33801				-198.26891	1115.28491	1397.16541	-680.45074	970.36273	1768.38818	-470.72150	949.57971	1585.72009							-573.64526	569.68427	1555.05750							
403	4.020																												-160.57990	1226.67810	1610.46350				-200.81917	1113.81799	1397.06531	-683.05328	969.69952	1763.73206	-472.69498	948.84570	1582.63098							-575.06879	568.28375	1551.24829							
404	4.030																												-163.95442	1225.58179	1609.23242				-202.93605	1111.59180	1396.57947	-685.99255	969.11407	1758.45862	-475.15646	946.94312	1578.05554							-576.32037	566.44757	1548.24438				-592.72943	142.20966	1574.72876	
405	4.040																												-167.18445	1224.80518	1607.35962				-206.36984	1110.00940	1395.75049	-688.59869	968.12567	1752.53613	-477.65207	945.72534	1573.51245							-577.90167	565.22717	1544.92432				-596.38269	141.56104	1571.26843	
406	4.050																												-170.82733	1223.30212	1606.13660				-209.51505	1108.21289	1395.19165	-691.47571	967.52417	1747.56958	-479.98114	944.93787	1568.07678							-579.28766	563.53986	1542.66846				-600.83459	139.63789	1570.24255	
407	4.060																												-174.21204	1222.46802	1604.50061				-212.08284	1105.98926	1393.73950	-694.20178	966.40521	1742.16040	-482.45609	943.77173	1562.90369							-581.09814	561.89374	1539.43811				-603.89044	138.65961	1567.98242	
408	4.070																												-177.39729	1221.76306	1602.11609				-214.41911	1104.50183	1392.27429	-697.22369	965.47388	1737.46155	-485.15506	942.44476	1558.26001							-583.05865	559.54028	1535.45984				-606.18915	137.60715	1565.72571	
409	4.080																												-180.90237	1220.33813	1599.95618				-217.04341	1102.88245	1391.26111	-700.23193	964.75702	1731.90588	-487.68283	941.62415	1553.29395							-584.22089	558.01904	1533.17053				-606.36426	134.74667	1566.11621	
410	4.090																												-184.44374	1219.21655	1597.47559				-220.26398	1100.96899	1388.77014	-702.94580	964.06427	1724.72742	-490.58270	939.58990	1548.41125							-586.24365	555.89813	1530.26904				-605.93958	133.39813	1565.74329	
411	4.100																												-187.95473	1217.67590	1594.51294				-222.80023	1099.39465	1386.89453	-706.27264	963.67688	1719.02429	-493.28705	938.64178	1539.85803							-587.56012	553.91205	1526.14758				-605.39166	132.59541	1565.41528	
412	4.110																												-191.13043	1216.40393	1592.66516				-225.15790	1097.77502	1384.76306	-709.69623	962.62830	1713.15796	-496.19260	938.59564	1533.41162							-589.59198	551.45673	1523.19690				-604.92694	130.10162	1564.86389	
413	4.120																												-194.20760	1215.49597	1590.43433				-228.24049	1096.47485	1382.21521	-713.17468	962.17419	1708.04114	-499.68677	936.89996	1527.26245							-591.56445	549.75946	1519.66125				-606.59021	129.70657	1563.30176	
414	4.130																												-197.82829	1214.11426	1587.08105				-231.15211	1094.84619	1379.62671	-716.89478	961.85718	1700.71912	-503.38821	935.62701	1522.99524							-593.00830	548.20941	1515.48633				-607.98877	129.31369	1560.10156	
415	4.140	-666.90863	1595.65735	1422.81616																									-201.88460	1212.51184	1583.91516				-233.81812	1092.98169	1376.80994	-720.85962	961.72620	1693.16223	-507.17279	934.39844	1518.32385							-594.67035	547.79773	1510.48376				-608.28369	128.47859	1558.00256	
416	4.150	-669.24536	1595.79553	1416.06311																									-205.16612	1211.49695	1580.55750				-236.18715	1091.32068	1374.27563	-725.17102	961.55011	1687.82324	-510.41693	934.58282	1511.16760							-595.08362	547.48975	1505.61523				-608.41858	128.40207	1557.98230	
417	4.160	-671.47687	1596.02698	1409.39270																									-208.78827	1211.17322	1576.69385				-239.59839	1089.98669	1370.99487	-729.35797	961.64154	1680.35779	-514.44836	933.64624	1507.56299							-597.38696	548.32312	1502.63293				-609.56696	129.14001	1558.93823	
418	4.170	-673.09100	1596.52271	1402.62341																									-213.01765	1210.43201	1573.21094				-242.53157	1088.75684	1367.53369	-733.65436	961.82507	1673.18286	-517.85291	933.17853	1502.24438							-599.58014	550.06281	1497.28064				-609.14996	129.14197	1557.73499	
419	4.180	-674.50427	1596.89026	1395.82349																									-217.43719	1209.47046	1569.15417				-245.75952	1087.57678	1364.43555	-738.31067	962.56097	1665.93396	-521.59204	934.19427	1494.95386							-601.78308	551.59589	1493.79675				-609.25714	129.55424	1557.22449	
420	4.190	-676.86993	1597.81982	1389.13428																									-221.01044	1208.81494	1565.62231				-248.36346	1086.48206	1360.83936	-742.77600	962.91809	1657.73450	-524.87927	934.26855	1488.74524							-604.69781	552.83490	1489.33643				-609.29761	129.48802	1557.24207	
421	4.200	-678.72205	1599.07556	1382.27783																									-224.49503	1208.71692	1562.75317				-250.86343	1085.55322	1357.72620	-747.21289	963.19965	1649.82678	-527.67047	935.47498	1481.49292							-606.44934	553.43597	1484.61548				-609.21417	129.68735	1556.71899	
422	4.210	-679.68652	1599.81238	1375.45557																									-228.61905	1208.26733	1558.90222				-253.57652	1084.43762	1354.39111	-751.88727	964.10510	1641.65417	-530.44989	935.09821	1476.96033							-607.79602	553.66577	1480.08154				-608.78912	128.91148	1557.07874	
423	4.220	-681.80786	1601.58130	1368.59949																									-232.18613	1208.49341	1556.19019				-256.66235	1083.72461	1350.76501	-756.07635	965.18500	1633.09204	-532.76447	936.86090	1469.76099							-608.01361	553.12439	1475.96521				-608.67413	128.82018	1557.01489	
424	4.230	-683.43585	1602.92053	1361.72034																									-236.32333	1209.00806	1552.22961				-259.33331	1082.94238	1347.29456	-760.22028	965.59558	1625.89417	-534.75446	935.48370	1464.55029							-607.69189	552.40448	1471.28589				-608.10291	128.31136	1556.70752	
425	4.240	-684.46448	1604.57800	1354.76660																									-239.91148	1208.98169	1548.77258				-262.31833	1082.80212	1343.69202	-764.37970	966.81152	1616.18103	-536.41138	937.77411	1457.23010							-606.89905	550.80817	1468.42090				-607.93152	128.63072	1555.13867	
426	4.250	-686.20844	1606.41089	1347.86572																						-871.90771	1204.55896	1512.72681	-244.14467	1209.32935	1543.95422				-265.19083	1082.15405	1340.53552	-768.54761	967.89435	1608.02966	-538.77118	937.46747	1452.04602							-605.64569	549.74115	1465.91394				-607.73529	128.65669	1555.05286	
427	4.260	-687.95599	1608.33398	1340.99927																						-874.94031	1205.47327	1504.79395	-248.02628	1210.22498	1540.51624				-268.43140	1081.79272	1336.90112	-772.44891	968.76703	1600.82031	-539.55225	939.16168	1445.03528							-603.46271	548.91095	1462.17041				-607.59216	128.65814	1554.49731	
